<svg width="550" height="550" viewBox="0 0 550 550" fill="none" xmlns="http://www.w3.org/2000/svg">
<rect x="319" y="319" width="210" height="210" stroke="white" stroke-width="40"/>
<mask id="path-2-inside-1_16_3" fill="white">
<path d="M275 550C220.61 550 167.442 533.872 122.218 503.654C76.9947 473.437 41.7472 430.488 20.9331 380.238C0.119025 329.988 -5.32689 274.695 5.28405 221.35C15.895 168.005 42.0862 119.005 80.5457 80.5456C119.005 42.0862 168.005 15.895 221.35 5.28404C274.695 -5.32689 329.988 0.119037 380.238 20.9331C430.488 41.7473 473.437 76.9947 503.654 122.218C533.872 167.442 550 220.61 550 275L275 275L275 550Z"/>
</mask>
<path d="M275 550C220.61 550 167.442 533.872 122.218 503.654C76.9947 473.437 41.7472 430.488 20.9331 380.238C0.119025 329.988 -5.32689 274.695 5.28405 221.35C15.895 168.005 42.0862 119.005 80.5457 80.5456C119.005 42.0862 168.005 15.895 221.35 5.28404C274.695 -5.32689 329.988 0.119037 380.238 20.9331C430.488 41.7473 473.437 76.9947 503.654 122.218C533.872 167.442 550 220.61 550 275L275 275L275 550Z" stroke="white" stroke-width="90" mask="url(#path-2-inside-1_16_3)"/>
</svg>
